<?xml version="1.0" encoding="UTF-8"?>
<svg xmlns="http://www.w3.org/2000/svg" xmlns:xlink="http://www.w3.org/1999/xlink" width="17px" height="20px" viewBox="0 0 17 19" version="1.1">
<g id="surface1">
<path style=" stroke:none;fill-rule:nonzero;fill:rgb(0%,0%,0%);fill-opacity:1;" d="M 16.671875 13.445312 C 15.941406 12.675781 14.570312 11.515625 14.570312 7.71875 C 14.570312 4.835938 12.5 2.527344 9.714844 1.960938 L 9.714844 1.1875 C 9.714844 0.53125 9.171875 0 8.5 0 C 7.828125 0 7.285156 0.53125 7.285156 1.1875 L 7.285156 1.960938 C 4.5 2.527344 2.429688 4.835938 2.429688 7.71875 C 2.429688 11.515625 1.058594 12.675781 0.328125 13.445312 C 0.0976562 13.683594 0 13.96875 0 14.25 C 0.00390625 14.859375 0.492188 15.4375 1.21875 15.4375 L 15.78125 15.4375 C 16.507812 15.4375 16.996094 14.859375 17 14.25 C 17 13.96875 16.902344 13.683594 16.671875 13.445312 Z M 2.5625 13.65625 C 3.367188 12.617188 4.25 10.898438 4.253906 7.742188 C 4.253906 7.734375 4.25 7.726562 4.25 7.71875 C 4.25 5.421875 6.152344 3.5625 8.5 3.5625 C 10.847656 3.5625 12.75 5.421875 12.75 7.71875 C 12.75 7.726562 12.746094 7.734375 12.746094 7.742188 C 12.75 10.898438 13.632812 12.617188 14.4375 13.65625 Z M 8.5 19 C 9.839844 19 10.925781 17.9375 10.925781 16.625 L 6.074219 16.625 C 6.074219 17.9375 7.160156 19 8.5 19 Z M 8.5 19 "/>
</g>
</svg>
