<?xml version="1.0" encoding="UTF-8"?>
<svg xmlns="http://www.w3.org/2000/svg" xmlns:xlink="http://www.w3.org/1999/xlink" width="20px" height="16px" viewBox="0 0 20 16" version="1.1">
<g id="surface1">
<path style=" stroke:none;fill-rule:nonzero;fill:rgb(0%,0%,0%);fill-opacity:1;" d="M 19.5 7 L 19 7 L 19 5 C 19 4.449219 18.550781 4 18 4 L 15.699219 4 L 13.101562 0.75 C 12.722656 0.277344 12.144531 0 11.539062 0 L 8 0 C 7.449219 0 7 0.449219 7 1 L 7 4 L 1.5 4 C 1.222656 4 1 4.222656 1 4.5 L 1 7 L 0.5 7 C 0.222656 7 0 7.222656 0 7.5 L 0 8.5 C 0 8.777344 0.222656 9 0.5 9 L 1.023438 9 C 1.933594 7.792969 3.371094 7 5 7 C 6.628906 7 8.066406 7.792969 8.976562 9 L 11.023438 9 C 11.9375 7.792969 13.371094 7 15 7 C 16.632812 7 18.066406 7.792969 18.976562 9 L 19.5 9 C 19.777344 9 20 8.777344 20 8.5 L 20 7.5 C 20 7.222656 19.777344 7 19.5 7 Z M 9 4 L 9 2 L 11.539062 2 L 13.140625 4 Z M 18.5 11 L 18.335938 11 C 18.269531 10.769531 18.179688 10.554688 18.066406 10.347656 L 18.183594 10.234375 C 18.378906 10.039062 18.378906 9.71875 18.183594 9.523438 L 17.476562 8.816406 C 17.28125 8.621094 16.960938 8.621094 16.765625 8.816406 L 16.652344 8.933594 C 16.445312 8.820312 16.226562 8.730469 16 8.664062 L 16 8.5 C 16 8.222656 15.777344 8 15.5 8 L 14.5 8 C 14.222656 8 14 8.222656 14 8.5 L 14 8.664062 C 13.769531 8.730469 13.554688 8.820312 13.347656 8.933594 L 13.234375 8.816406 C 13.039062 8.621094 12.71875 8.621094 12.523438 8.816406 L 11.816406 9.523438 C 11.621094 9.71875 11.621094 10.039062 11.816406 10.234375 L 11.933594 10.347656 C 11.820312 10.554688 11.730469 10.773438 11.664062 11 L 11.5 11 C 11.222656 11 11 11.222656 11 11.5 L 11 12.5 C 11 12.777344 11.222656 13 11.5 13 L 11.664062 13 C 11.730469 13.230469 11.820312 13.445312 11.933594 13.652344 L 11.816406 13.765625 C 11.621094 13.960938 11.621094 14.28125 11.816406 14.476562 L 12.523438 15.183594 C 12.71875 15.378906 13.039062 15.378906 13.234375 15.183594 L 13.347656 15.066406 C 13.554688 15.179688 13.769531 15.269531 14 15.335938 L 14 15.5 C 14 15.777344 14.222656 16 14.5 16 L 15.5 16 C 15.777344 16 16 15.777344 16 15.5 L 16 15.335938 C 16.230469 15.269531 16.445312 15.179688 16.652344 15.066406 L 16.769531 15.183594 C 16.964844 15.378906 17.28125 15.378906 17.476562 15.183594 L 18.183594 14.476562 C 18.378906 14.28125 18.378906 13.960938 18.183594 13.765625 L 18.066406 13.652344 C 18.179688 13.445312 18.269531 13.226562 18.339844 13 L 18.5 13 C 18.777344 13 19 12.777344 19 12.5 L 19 11.5 C 19 11.222656 18.777344 11 18.5 11 Z M 15 13.5 C 14.171875 13.5 13.5 12.828125 13.5 12 C 13.5 11.171875 14.171875 10.5 15 10.5 C 15.828125 10.5 16.5 11.171875 16.5 12 C 16.5 12.828125 15.828125 13.5 15 13.5 Z M 8.5 11 L 8.335938 11 C 8.269531 10.769531 8.179688 10.554688 8.066406 10.347656 L 8.183594 10.234375 C 8.378906 10.039062 8.378906 9.71875 8.183594 9.523438 L 7.476562 8.816406 C 7.28125 8.621094 6.960938 8.621094 6.765625 8.816406 L 6.652344 8.933594 C 6.445312 8.820312 6.226562 8.730469 6 8.664062 L 6 8.5 C 6 8.222656 5.777344 8 5.5 8 L 4.5 8 C 4.222656 8 4 8.222656 4 8.5 L 4 8.664062 C 3.769531 8.730469 3.554688 8.820312 3.347656 8.933594 L 3.234375 8.816406 C 3.039062 8.621094 2.71875 8.621094 2.523438 8.816406 L 1.816406 9.523438 C 1.621094 9.71875 1.621094 10.035156 1.816406 10.230469 L 1.933594 10.347656 C 1.820312 10.554688 1.730469 10.773438 1.664062 11 L 1.5 11 C 1.222656 11 1 11.222656 1 11.5 L 1 12.5 C 1 12.777344 1.222656 13 1.5 13 L 1.664062 13 C 1.730469 13.230469 1.820312 13.445312 1.933594 13.652344 L 1.816406 13.765625 C 1.621094 13.960938 1.621094 14.277344 1.816406 14.472656 L 2.523438 15.179688 C 2.71875 15.375 3.039062 15.375 3.234375 15.179688 L 3.347656 15.066406 C 3.554688 15.179688 3.769531 15.269531 4 15.335938 L 4 15.5 C 4 15.777344 4.222656 16 4.5 16 L 5.5 16 C 5.777344 16 6 15.777344 6 15.5 L 6 15.335938 C 6.230469 15.269531 6.445312 15.179688 6.652344 15.066406 L 6.769531 15.179688 C 6.964844 15.375 7.28125 15.375 7.476562 15.179688 L 8.183594 14.472656 C 8.378906 14.277344 8.378906 13.960938 8.183594 13.765625 L 8.066406 13.652344 C 8.179688 13.445312 8.269531 13.226562 8.339844 13 L 8.5 13 C 8.777344 13 9 12.777344 9 12.5 L 9 11.5 C 9 11.222656 8.777344 11 8.5 11 Z M 5 13.5 C 4.171875 13.5 3.5 12.828125 3.5 12 C 3.5 11.171875 4.171875 10.5 5 10.5 C 5.828125 10.5 6.5 11.171875 6.5 12 C 6.5 12.828125 5.828125 13.5 5 13.5 Z M 5 13.5 "/>
</g>
</svg>
