<?xml version="1.0" encoding="UTF-8"?>
<svg xmlns="http://www.w3.org/2000/svg" xmlns:xlink="http://www.w3.org/1999/xlink" width="20px" height="20px" viewBox="0 0 20 20" version="1.1">
<g id="surface1">
<path style=" stroke:none;fill-rule:nonzero;fill:rgb(0%,0%,0%);fill-opacity:1;" d="M 18.234375 4.765625 L 1.765625 4.765625 C 0.792969 4.765625 0 5.558594 0 6.535156 L 0 13.464844 C 0 14.441406 0.792969 15.234375 1.765625 15.234375 L 18.234375 15.234375 C 19.207031 15.234375 20 14.441406 20 13.464844 L 20 6.535156 C 20 5.558594 19.207031 4.765625 18.234375 4.765625 Z M 18.695312 13.464844 C 18.695312 13.722656 18.488281 13.929688 18.234375 13.929688 L 1.765625 13.929688 C 1.511719 13.929688 1.304688 13.722656 1.304688 13.464844 L 1.304688 13.371094 L 18.695312 13.371094 Z M 18.695312 12.066406 L 1.304688 12.066406 L 1.304688 7.933594 L 18.695312 7.933594 Z M 18.695312 6.628906 L 1.304688 6.628906 L 1.304688 6.535156 C 1.304688 6.277344 1.511719 6.070312 1.765625 6.070312 L 18.234375 6.070312 C 18.488281 6.070312 18.695312 6.277344 18.695312 6.535156 Z M 18.695312 6.628906 "/>
<path style=" stroke:none;fill-rule:nonzero;fill:rgb(0%,0%,0%);fill-opacity:1;" d="M 4.515625 8.691406 L 4 8.691406 L 3.132812 11.007812 L 3.808594 11.007812 L 3.949219 10.554688 L 4.5625 10.554688 L 4.703125 11.007812 L 5.378906 11.007812 Z M 4.042969 10.128906 L 4.257812 9.351562 L 4.464844 10.128906 Z M 4.042969 10.128906 "/>
<path style=" stroke:none;fill-rule:nonzero;fill:rgb(0%,0%,0%);fill-opacity:1;" d="M 7.089844 9.820312 C 7.3125 9.722656 7.425781 9.5 7.425781 9.285156 C 7.425781 8.992188 7.222656 8.691406 6.894531 8.691406 L 5.550781 8.691406 L 5.550781 11.007812 L 6.6875 11.007812 C 7.144531 11.007812 7.523438 10.832031 7.523438 10.414062 C 7.523438 10.089844 7.355469 9.898438 7.089844 9.820312 Z M 6.1875 9.230469 L 6.640625 9.230469 C 6.722656 9.230469 6.792969 9.28125 6.792969 9.410156 C 6.792969 9.550781 6.707031 9.585938 6.621094 9.585938 L 6.1875 9.585938 Z M 6.6875 10.472656 L 6.1875 10.472656 L 6.1875 10.085938 L 6.710938 10.085938 C 6.808594 10.085938 6.875 10.167969 6.875 10.285156 C 6.875 10.402344 6.792969 10.472656 6.6875 10.472656 Z M 6.6875 10.472656 "/>
<path style=" stroke:none;fill-rule:nonzero;fill:rgb(0%,0%,0%);fill-opacity:1;" d="M 9.179688 10.179688 C 9.113281 10.386719 8.933594 10.460938 8.785156 10.460938 C 8.492188 10.460938 8.316406 10.171875 8.316406 9.847656 C 8.316406 9.558594 8.457031 9.242188 8.777344 9.242188 C 8.921875 9.242188 9.113281 9.304688 9.191406 9.527344 L 9.675781 9.183594 C 9.527344 8.878906 9.203125 8.675781 8.792969 8.675781 C 8.085938 8.675781 7.671875 9.265625 7.671875 9.828125 C 7.671875 10.421875 8.125 11.027344 8.773438 11.027344 C 9.140625 11.027344 9.570312 10.832031 9.699219 10.488281 Z M 9.179688 10.179688 "/>
<path style=" stroke:none;fill-rule:nonzero;fill:rgb(0%,0%,0%);fill-opacity:1;" d="M 9.902344 9.828125 L 10.921875 9.828125 L 10.921875 10.382812 L 9.902344 10.382812 Z M 9.902344 9.828125 "/>
<path style=" stroke:none;fill-rule:nonzero;fill:rgb(0%,0%,0%);fill-opacity:1;" d="M 12.394531 10.453125 L 12.394531 8.675781 L 11.761719 8.675781 C 11.753906 8.6875 11.457031 8.984375 11.222656 8.984375 L 11.222656 9.550781 C 11.398438 9.550781 11.691406 9.371094 11.761719 9.269531 L 11.761719 10.453125 L 11.296875 10.453125 L 11.296875 11.007812 L 12.808594 11.007812 L 12.808594 10.453125 Z M 12.394531 10.453125 "/>
<path style=" stroke:none;fill-rule:nonzero;fill:rgb(0%,0%,0%);fill-opacity:1;" d="M 13.929688 10.453125 C 13.929688 10.3125 14.140625 10.207031 14.328125 10.101562 C 14.617188 9.929688 14.789062 9.765625 14.789062 9.410156 C 14.789062 8.933594 14.484375 8.664062 13.957031 8.664062 C 13.53125 8.664062 13.179688 8.835938 13.003906 9.03125 L 13.386719 9.449219 C 13.511719 9.328125 13.699219 9.210938 13.867188 9.210938 C 13.976562 9.210938 14.078125 9.261719 14.078125 9.417969 C 14.078125 9.65625 13.84375 9.769531 13.574219 9.898438 C 13.078125 10.132812 13.003906 10.40625 13.003906 11.007812 L 14.792969 11.007812 L 14.792969 10.453125 Z M 13.929688 10.453125 "/>
<path style=" stroke:none;fill-rule:nonzero;fill:rgb(0%,0%,0%);fill-opacity:1;" d="M 16.269531 9.765625 C 16.515625 9.71875 16.691406 9.546875 16.691406 9.292969 C 16.691406 8.933594 16.332031 8.660156 15.847656 8.660156 C 15.554688 8.660156 15.207031 8.761719 15.03125 8.953125 L 15.425781 9.414062 C 15.484375 9.339844 15.605469 9.203125 15.851562 9.203125 C 15.886719 9.203125 16.023438 9.207031 16.023438 9.328125 C 16.023438 9.488281 15.765625 9.546875 15.480469 9.546875 L 15.375 9.546875 L 15.375 10.058594 L 15.484375 10.058594 C 15.867188 10.058594 16.082031 10.109375 16.082031 10.28125 C 16.082031 10.417969 15.941406 10.46875 15.792969 10.46875 C 15.496094 10.46875 15.40625 10.253906 15.378906 10.226562 L 15.0625 10.660156 C 15.210938 10.917969 15.460938 11.039062 15.804688 11.039062 C 16.242188 11.039062 16.730469 10.851562 16.730469 10.363281 C 16.730469 10.074219 16.554688 9.8125 16.269531 9.765625 Z M 16.269531 9.765625 "/>
</g>
</svg>
