<?xml version="1.0" encoding="UTF-8"?>
<svg xmlns="http://www.w3.org/2000/svg" xmlns:xlink="http://www.w3.org/1999/xlink" width="23px" height="20px" viewBox="0 0 22 20" version="1.1">
<g id="surface1">
<path style=" stroke:none;fill-rule:nonzero;fill:rgb(0%,0%,0%);fill-opacity:1;" d="M 8.332031 16.566406 C 8.21875 16.335938 8.023438 16.3125 7.945312 16.3125 C 7.863281 16.3125 7.667969 16.335938 7.5625 16.554688 L 7.269531 17.15625 C 7.027344 17.652344 6.3125 17.597656 6.144531 17.074219 L 5.5 15.101562 L 5.09375 16.347656 C 4.871094 17.035156 4.238281 17.5 3.527344 17.5 L 3.054688 17.5 C 2.71875 17.5 2.445312 17.21875 2.445312 16.875 C 2.445312 16.53125 2.71875 16.25 3.054688 16.25 L 3.527344 16.25 C 3.714844 16.25 3.875 16.128906 3.933594 15.949219 L 4.628906 13.816406 C 4.757812 13.433594 5.105469 13.175781 5.5 13.175781 C 5.894531 13.175781 6.242188 13.433594 6.371094 13.816406 L 6.898438 15.441406 C 7.652344 14.8125 8.964844 15.0625 9.421875 15.996094 C 9.492188 16.144531 9.628906 16.226562 9.777344 16.242188 L 9.777344 13.03125 L 14.667969 8.070312 L 14.667969 6.25 L 9.472656 6.25 C 8.96875 6.25 8.554688 5.828125 8.554688 5.3125 L 8.554688 0 L 0.917969 0 C 0.410156 0 0 0.417969 0 0.9375 L 0 19.0625 C 0 19.582031 0.410156 20 0.917969 20 L 13.75 20 C 14.257812 20 14.667969 19.582031 14.667969 19.0625 L 14.667969 17.5 L 9.777344 17.496094 C 9.160156 17.484375 8.609375 17.132812 8.332031 16.566406 Z M 14.667969 4.761719 C 14.667969 4.515625 14.570312 4.277344 14.398438 4.101562 L 10.660156 0.273438 C 10.488281 0.0976562 10.253906 0 10.011719 0 L 9.777344 0 L 9.777344 5 L 14.667969 5 Z M 11 13.554688 L 11 16.25 L 13.636719 16.25 L 19.808594 9.890625 L 17.21875 7.238281 Z M 21.714844 6.535156 L 20.496094 5.292969 C 20.117188 4.902344 19.503906 4.902344 19.121094 5.292969 L 18.082031 6.355469 L 20.675781 9.007812 L 21.714844 7.941406 C 22.09375 7.554688 22.09375 6.925781 21.714844 6.535156 Z M 21.714844 6.535156 "/>
</g>
</svg>
