<?xml version="1.0" encoding="UTF-8"?>
<svg xmlns="http://www.w3.org/2000/svg" xmlns:xlink="http://www.w3.org/1999/xlink" width="17px" height="20px" viewBox="0 0 17 19" version="1.1">
<g id="surface1">
<path style=" stroke:none;fill-rule:nonzero;fill:rgb(0%,0%,0%);fill-opacity:1;" d="M 16.464844 2.445312 L 14.496094 0.523438 C 14.15625 0.1875 13.691406 0 13.210938 0 L 6.679688 0 C 5.671875 0 4.855469 0.796875 4.855469 1.78125 L 4.855469 3.5625 L 1.820312 3.5625 C 0.816406 3.5625 0 4.359375 0 5.34375 L 0 17.21875 C 0 18.203125 0.816406 19 1.820312 19 L 10.320312 19 C 11.328125 19 12.144531 18.203125 12.144531 17.21875 L 12.144531 15.4375 L 15.179688 15.4375 C 16.183594 15.4375 17 14.640625 17 13.65625 L 17 3.707031 C 17 3.234375 16.808594 2.78125 16.464844 2.445312 Z M 10.09375 17.21875 L 2.050781 17.21875 C 1.921875 17.21875 1.820312 17.117188 1.820312 16.996094 L 1.820312 5.566406 C 1.820312 5.445312 1.921875 5.34375 2.050781 5.34375 L 4.855469 5.34375 L 4.855469 13.65625 C 4.855469 14.640625 5.671875 15.4375 6.679688 15.4375 L 10.320312 15.4375 L 10.320312 16.996094 C 10.320312 17.117188 10.21875 17.21875 10.09375 17.21875 Z M 14.949219 13.65625 L 6.90625 13.65625 C 6.78125 13.65625 6.679688 13.554688 6.679688 13.433594 L 6.679688 2.003906 C 6.679688 1.882812 6.78125 1.78125 6.90625 1.78125 L 10.929688 1.78125 L 10.929688 5.046875 C 10.929688 5.539062 11.335938 5.9375 11.839844 5.9375 L 15.179688 5.9375 L 15.179688 13.433594 C 15.179688 13.554688 15.078125 13.65625 14.949219 13.65625 Z M 15.179688 4.15625 L 12.75 4.15625 L 12.75 1.78125 L 13.117188 1.78125 C 13.175781 1.78125 13.234375 1.804688 13.277344 1.847656 L 15.113281 3.640625 C 15.15625 3.683594 15.179688 3.738281 15.179688 3.796875 Z M 15.179688 4.15625 "/>
</g>
</svg>
