<?xml version="1.0" encoding="utf-8"?>
<svg width="20px" height="20px" viewBox="0 0 20 20" version="1.1" xmlns:xlink="http://www.w3.org/1999/xlink" xmlns="http://www.w3.org/2000/svg">
  <defs>
    <path d="M0 0L20 0L20 20L0 20L0 0Z" id="path_1" />
    <clipPath id="mask_1">
      <use xlink:href="#path_1" />
    </clipPath>
  </defs>
  <g id="vector-(3)">
    <path d="M0 0L20 0L20 20L0 20L0 0Z" id="Background" fill="none" fill-rule="evenodd" stroke="none" />
    <g clip-path="url(#mask_1)">
      <path d="M10.4733 0.0625C12.3083 1.04083 15.4217 4.13167 16.6667 5.79667C15.595 5.04667 13.2967 4.41583 11.5908 4.81417C11.7758 3.59083 11.4367 1.03583 10.4733 0.0625L10.4733 0.0625ZM16.6667 9.16667L16.6667 20L0 20L0 0L7.0075 0C11.055 0 9.78667 6.66667 9.78667 6.66667C12.2942 6.04583 16.6667 6.3175 16.6667 9.16667L16.6667 9.16667ZM4.16667 10.4167C4.16667 11.1067 4.72667 11.6667 5.4175 11.6667C6.10667 11.6667 6.66667 11.1067 6.66667 10.4167C6.66667 9.72666 6.10667 9.16666 5.4175 9.16666C4.72667 9.16666 4.16667 9.72666 4.16667 10.4167L4.16667 10.4167ZM12.5 15.8333L9.58333 10.8333L7.83917 13.3067L6.7475 12.5L4.16667 15.8333L12.5 15.8333L12.5 15.8333Z" transform="translate(1.6666666 0)" id="path" fill="#000000" fill-rule="evenodd" stroke="none" />
    </g>
  </g>
</svg>