<?xml version="1.0" encoding="UTF-8"?>
<svg xmlns="http://www.w3.org/2000/svg" xmlns:xlink="http://www.w3.org/1999/xlink" width="20px" height="20px" viewBox="0 0 20 20" version="1.1">
<g id="surface1">
<path style=" stroke:none;fill-rule:nonzero;fill:rgb(0%,0%,0%);fill-opacity:1;" d="M 10 1.667969 C 14.59375 1.667969 18.332031 5.40625 18.332031 10 C 18.332031 14.59375 14.59375 18.332031 10 18.332031 C 5.40625 18.332031 1.667969 14.59375 1.667969 10 C 1.667969 5.40625 5.40625 1.667969 10 1.667969 Z M 10 0 C 4.476562 0 0 4.476562 0 10 C 0 15.523438 4.476562 20 10 20 C 15.523438 20 20 15.523438 20 10 C 20 4.476562 15.523438 0 10 0 Z M 13.75 14.425781 L 12.285156 11.59375 L 11.421875 12.015625 C 10.488281 12.46875 8.589844 8.757812 9.503906 8.269531 L 10.371094 7.839844 L 8.914062 5 L 8.039062 5.433594 C 5.035156 6.996094 9.800781 16.257812 12.871094 14.855469 Z M 13.75 14.425781 "/>
</g>
</svg>
