<?xml version="1.0" encoding="UTF-8"?>
<svg xmlns="http://www.w3.org/2000/svg" xmlns:xlink="http://www.w3.org/1999/xlink" width="17px" height="20px" viewBox="0 0 17 19" version="1.1">
<g id="surface1">
<path style=" stroke:none;fill-rule:nonzero;fill:rgb(0%,0%,0%);fill-opacity:1;" d="M 16.464844 4.820312 L 13.285156 1.710938 C 12.941406 1.375 12.480469 1.1875 11.996094 1.1875 L 1.820312 1.1875 C 0.816406 1.1875 0 1.984375 0 2.96875 L 0 16.03125 C 0 17.015625 0.816406 17.8125 1.820312 17.8125 L 15.179688 17.8125 C 16.183594 17.8125 17 17.015625 17 16.03125 L 17 6.082031 C 17 5.609375 16.808594 5.15625 16.464844 4.820312 Z M 8.5 15.4375 C 7.160156 15.4375 6.070312 14.375 6.070312 13.0625 C 6.070312 11.75 7.160156 10.6875 8.5 10.6875 C 9.839844 10.6875 10.929688 11.75 10.929688 13.0625 C 10.929688 14.375 9.839844 15.4375 8.5 15.4375 Z M 12.144531 4.136719 L 12.144531 7.867188 C 12.144531 8.113281 11.9375 8.3125 11.6875 8.3125 L 2.882812 8.3125 C 2.632812 8.3125 2.429688 8.113281 2.429688 7.867188 L 2.429688 4.007812 C 2.429688 3.761719 2.632812 3.5625 2.882812 3.5625 L 11.554688 3.5625 C 11.675781 3.5625 11.792969 3.609375 11.878906 3.691406 L 12.007812 3.820312 C 12.09375 3.90625 12.144531 4.019531 12.144531 4.136719 Z M 12.144531 4.136719 "/>
</g>
</svg>
