<?xml version="1.0" encoding="UTF-8"?>
<svg xmlns="http://www.w3.org/2000/svg" xmlns:xlink="http://www.w3.org/1999/xlink" width="17px" height="20px" viewBox="0 0 17 19" version="1.1">
<g id="surface1">
<path style=" stroke:none;fill-rule:nonzero;fill:rgb(0%,0%,0%);fill-opacity:1;" d="M 1.214844 17.21875 C 1.214844 18.203125 2.03125 19 3.035156 19 L 13.964844 19 C 14.96875 19 15.785156 18.203125 15.785156 17.21875 L 15.785156 4.75 L 1.214844 4.75 Z M 11.535156 7.71875 C 11.535156 7.390625 11.808594 7.125 12.144531 7.125 C 12.476562 7.125 12.75 7.390625 12.75 7.71875 L 12.75 16.03125 C 12.75 16.359375 12.476562 16.625 12.144531 16.625 C 11.808594 16.625 11.535156 16.359375 11.535156 16.03125 Z M 7.894531 7.71875 C 7.894531 7.390625 8.164062 7.125 8.5 7.125 C 8.835938 7.125 9.105469 7.390625 9.105469 7.71875 L 9.105469 16.03125 C 9.105469 16.359375 8.835938 16.625 8.5 16.625 C 8.164062 16.625 7.894531 16.359375 7.894531 16.03125 Z M 4.25 7.71875 C 4.25 7.390625 4.523438 7.125 4.855469 7.125 C 5.191406 7.125 5.464844 7.390625 5.464844 7.71875 L 5.464844 16.03125 C 5.464844 16.359375 5.191406 16.625 4.855469 16.625 C 4.523438 16.625 4.25 16.359375 4.25 16.03125 Z M 16.394531 1.1875 L 11.839844 1.1875 L 11.484375 0.492188 C 11.328125 0.191406 11.011719 0 10.667969 0 L 6.328125 0 C 5.984375 0 5.667969 0.191406 5.515625 0.492188 L 5.160156 1.1875 L 0.605469 1.1875 C 0.273438 1.1875 0 1.453125 0 1.78125 L 0 2.96875 C 0 3.296875 0.273438 3.5625 0.605469 3.5625 L 16.394531 3.5625 C 16.726562 3.5625 17 3.296875 17 2.96875 L 17 1.78125 C 17 1.453125 16.726562 1.1875 16.394531 1.1875 Z M 16.394531 1.1875 "/>
</g>
</svg>
