<?xml version="1.0" encoding="UTF-8"?>
<svg xmlns="http://www.w3.org/2000/svg" xmlns:xlink="http://www.w3.org/1999/xlink" width="20px" height="20px" viewBox="0 0 20 20" version="1.1">
<g id="surface1">
<path style=" stroke:none;fill-rule:nonzero;fill:rgb(0%,0%,0%);fill-opacity:1;" d="M 10 1.667969 C 14.59375 1.667969 18.332031 5.40625 18.332031 10 C 18.332031 14.59375 14.59375 18.332031 10 18.332031 C 5.40625 18.332031 1.667969 14.59375 1.667969 10 C 1.667969 5.40625 5.40625 1.667969 10 1.667969 Z M 10 0 C 4.476562 0 0 4.476562 0 10 C 0 15.523438 4.476562 20 10 20 C 15.523438 20 20 15.523438 20 10 C 20 4.476562 15.523438 0 10 0 Z M 15.207031 7.410156 L 14.023438 6.234375 L 8.9375 11.417969 L 6.371094 8.96875 L 5.207031 10.164062 L 8.957031 13.765625 Z M 15.207031 7.410156 "/>
</g>
</svg>
