<?xml version="1.0" encoding="UTF-8"?>
<svg xmlns="http://www.w3.org/2000/svg" xmlns:xlink="http://www.w3.org/1999/xlink" width="17px" height="20px" viewBox="0 0 17 19" version="1.1">
<g id="surface1">
<path style=" stroke:none;fill-rule:nonzero;fill:rgb(0%,0%,0%);fill-opacity:1;" d="M 8.5 9.5 C 11.183594 9.5 13.355469 7.375 13.355469 4.75 C 13.355469 2.125 11.183594 0 8.5 0 C 5.816406 0 3.644531 2.125 3.644531 4.75 C 3.644531 7.375 5.816406 9.5 8.5 9.5 Z M 11.898438 10.6875 L 11.265625 10.6875 C 10.425781 11.066406 9.488281 11.28125 8.5 11.28125 C 7.511719 11.28125 6.578125 11.066406 5.734375 10.6875 L 5.101562 10.6875 C 2.285156 10.6875 0 12.921875 0 15.675781 L 0 17.21875 C 0 18.203125 0.816406 19 1.820312 19 L 15.179688 19 C 16.183594 19 17 18.203125 17 17.21875 L 17 15.675781 C 17 12.921875 14.714844 10.6875 11.898438 10.6875 Z M 11.898438 10.6875 "/>
</g>
</svg>
