<?xml version="1.0" encoding="UTF-8"?>
<svg xmlns="http://www.w3.org/2000/svg" xmlns:xlink="http://www.w3.org/1999/xlink" width="17px" height="20px" viewBox="0 0 17 19" version="1.1">
<g id="surface1">
<path style=" stroke:none;fill-rule:nonzero;fill:rgb(0%,0%,0%);fill-opacity:1;" d="M 15.785156 7.71875 L 10.320312 7.71875 L 10.320312 2.375 C 10.320312 1.71875 9.777344 1.1875 9.105469 1.1875 L 7.894531 1.1875 C 7.222656 1.1875 6.679688 1.71875 6.679688 2.375 L 6.679688 7.71875 L 1.214844 7.71875 C 0.542969 7.71875 0 8.25 0 8.90625 L 0 10.09375 C 0 10.75 0.542969 11.28125 1.214844 11.28125 L 6.679688 11.28125 L 6.679688 16.625 C 6.679688 17.28125 7.222656 17.8125 7.894531 17.8125 L 9.105469 17.8125 C 9.777344 17.8125 10.320312 17.28125 10.320312 16.625 L 10.320312 11.28125 L 15.785156 11.28125 C 16.457031 11.28125 17 10.75 17 10.09375 L 17 8.90625 C 17 8.25 16.457031 7.71875 15.785156 7.71875 Z M 15.785156 7.71875 "/>
</g>
</svg>
