<?xml version="1.0" encoding="UTF-8"?>
<svg xmlns="http://www.w3.org/2000/svg" xmlns:xlink="http://www.w3.org/1999/xlink" width="20px" height="20px" viewBox="0 0 20 20" version="1.1">
<g id="surface1">
<path style=" stroke:none;fill-rule:nonzero;fill:rgb(0%,0%,0%);fill-opacity:1;" d="M 18.246094 1.75 C 15.804688 -0.6875 11.933594 -0.777344 8.394531 2.757812 C 5.324219 5.824219 6.011719 5.136719 5.042969 6.101562 C 2.683594 8.460938 2.292969 11.996094 2.558594 14.351562 L 9.527344 7.386719 C 9.773438 7.144531 10.167969 7.144531 10.414062 7.386719 C 10.65625 7.632812 10.65625 8.027344 10.414062 8.273438 L 0.273438 18.398438 C -0.0898438 18.765625 -0.0898438 19.359375 0.273438 19.726562 C 0.640625 20.089844 1.234375 20.089844 1.601562 19.726562 L 4.183594 17.144531 C 6.226562 17.757812 10.898438 17.855469 13.828125 15 L 9.992188 15 L 15.753906 13.082031 C 17.707031 11.128906 17.175781 11.667969 17.5625 11.25 L 13.746094 11.25 L 18.882812 9.539062 C 20.65625 6.628906 20.222656 3.726562 18.246094 1.75 Z M 18.246094 1.75 "/>
</g>
</svg>
