<?xml version="1.0" encoding="UTF-8"?>
<svg xmlns="http://www.w3.org/2000/svg" xmlns:xlink="http://www.w3.org/1999/xlink" width="20px" height="20px" viewBox="0 0 20 20" version="1.1">
<g id="surface1">
<path style=" stroke:none;fill-rule:nonzero;fill:rgb(0%,0%,0%);fill-opacity:1;" d="M 10 15.242188 L 10 16.773438 C 10.535156 16.878906 10.980469 17.023438 11.246094 17.210938 C 11.472656 17.371094 11.476562 17.625 11.246094 17.785156 C 10 18.664062 5 18.664062 3.753906 17.785156 C 3.527344 17.628906 3.527344 17.371094 3.753906 17.210938 C 4.019531 17.023438 4.460938 16.878906 5 16.773438 L 5 15.246094 C 3.03125 15.644531 1.667969 16.503906 1.667969 17.5 C 1.667969 18.878906 4.277344 20 7.5 20 C 10.722656 20 13.332031 18.878906 13.332031 17.5 C 13.332031 16.503906 11.96875 15.644531 10 15.242188 Z M 15.597656 2.945312 C 13.144531 2.945312 13.089844 0.832031 10.246094 0.832031 C 9.5625 0.832031 8.910156 0.980469 8.332031 1.183594 L 8.332031 0 L 6.667969 0 L 6.667969 17.5 L 8.332031 17.5 L 8.332031 9.480469 C 8.953125 9.160156 9.65625 8.925781 10.257812 8.925781 C 12.941406 8.925781 13.320312 10.933594 15.714844 10.933594 C 17.261719 10.933594 18.335938 9.941406 18.335938 9.941406 L 18.335938 1.902344 C 18.332031 1.902344 17.152344 2.945312 15.597656 2.945312 Z M 16.667969 9.042969 C 15.601562 9.535156 14.9375 9.175781 14.101562 8.601562 C 13.28125 8.035156 12.15625 7.261719 10.257812 7.261719 C 9.617188 7.261719 8.957031 7.421875 8.332031 7.65625 L 8.332031 2.972656 C 9.421875 2.394531 10.820312 2.246094 12.117188 3.261719 C 13.386719 4.253906 14.714844 4.898438 16.667969 4.5 Z M 16.667969 9.042969 "/>
</g>
</svg>
