<?xml version="1.0" encoding="UTF-8"?>
<svg xmlns="http://www.w3.org/2000/svg" xmlns:xlink="http://www.w3.org/1999/xlink" width="20px" height="20px" viewBox="0 0 20 20" version="1.1">
<g id="surface1">
<path style=" stroke:none;fill-rule:nonzero;fill:rgb(0%,0%,0%);fill-opacity:1;" d="M 7.5 15.832031 L 4.167969 15.832031 L 4.167969 14.167969 L 7.5 14.167969 Z M 9.953125 12.46875 L 12.542969 15.058594 L 9.117188 15.832031 Z M 20 7.605469 L 13.417969 14.265625 L 10.75 11.597656 L 17.332031 4.9375 Z M 15 15.039062 L 15 18.332031 L 1.667969 18.332031 L 1.667969 1.667969 L 7.800781 1.667969 C 11.265625 1.667969 10 6.667969 10 6.667969 C 10 6.667969 11.925781 6.136719 13.390625 6.554688 L 15.015625 4.910156 C 13.171875 2.570312 10.214844 0 8.492188 0 L 0 0 L 0 20 L 16.667969 20 L 16.667969 13.351562 Z M 15 15.039062 "/>
</g>
</svg>
