<?xml version="1.0" encoding="UTF-8"?>
<svg xmlns="http://www.w3.org/2000/svg" xmlns:xlink="http://www.w3.org/1999/xlink" width="20px" height="20px" viewBox="0 0 20 20" version="1.1">
<g id="surface1">
<path style=" stroke:none;fill-rule:nonzero;fill:rgb(0%,0%,0%);fill-opacity:1;" d="M 11.453125 6.667969 C 11.453125 6.667969 12.722656 0 8.675781 0 L 1.667969 0 L 1.667969 20 L 18.332031 20 L 18.332031 9.167969 C 18.332031 6.316406 13.960938 6.046875 11.453125 6.667969 Z M 11.667969 15.832031 L 5 15.832031 L 5 15 L 11.667969 15 Z M 15 13.332031 L 5 13.332031 L 5 12.5 L 15 12.5 Z M 15 10.832031 L 5 10.832031 L 5 10 L 15 10 Z M 12.140625 0.0625 C 13.976562 1.039062 17.089844 4.132812 18.332031 5.796875 C 17.261719 5.046875 14.964844 4.414062 13.257812 4.8125 C 13.441406 3.589844 13.101562 1.035156 12.140625 0.0625 Z M 12.140625 0.0625 "/>
</g>
</svg>
