<?xml version="1.0" encoding="utf-8"?>
<svg width="20px" height="20px" viewBox="0 0 20 20" version="1.1" xmlns:xlink="http://www.w3.org/1999/xlink" xmlns="http://www.w3.org/2000/svg">
  <g id="vector-(5)">
    <path d="M10 0C4.4775 0 0 4.4775 0 10C0 15.5225 4.4775 20 10 20C15.5225 20 20 15.5225 20 10C20 4.4775 15.5225 0 10 0L10 0ZM10 18.3333C5.405 18.3333 1.66667 14.595 1.66667 10C1.66667 5.405 5.405 1.66667 10 1.66667C14.595 1.66667 18.3333 5.405 18.3333 10C18.3333 14.595 14.595 18.3333 10 18.3333L10 18.3333ZM8.33333 6.66667L11.6667 6.66667L11.6667 7.5L8.33333 7.5L8.33333 6.66667L8.33333 6.66667ZM8.33333 5.83333L8.33333 5L11.6667 5L11.6667 5.83333L8.33333 5.83333L8.33333 5.83333ZM11.6667 10.8333L15 10.8333L10 15.8333L5 10.8333L8.33333 10.8333L8.33333 8.33333L11.6667 8.33333L11.6667 10.8333L11.6667 10.8333Z" id="path" fill="#000000" fill-rule="evenodd" stroke="none" />
  </g>
</svg>