<?xml version="1.0" encoding="UTF-8"?>
<svg xmlns="http://www.w3.org/2000/svg" xmlns:xlink="http://www.w3.org/1999/xlink" width="20px" height="20px" viewBox="0 0 20 20" version="1.1">
<g id="surface1">
<path style=" stroke:none;fill-rule:nonzero;fill:rgb(0%,0%,0%);fill-opacity:1;" d="M 20 18.125 C 20 19.160156 19.160156 20 18.125 20 L 1.875 20 C 0.839844 20 0 19.160156 0 18.125 L 0 7.839844 C 0 7.265625 0.265625 6.71875 0.71875 6.363281 C 1.691406 5.601562 2.496094 4.984375 7.132812 1.617188 C 7.789062 1.140625 9.09375 -0.0117188 10 0 C 10.90625 -0.015625 12.210938 1.140625 12.867188 1.617188 C 17.503906 4.984375 18.308594 5.601562 19.28125 6.363281 C 19.734375 6.71875 20 7.265625 20 7.839844 Z M 17.433594 10.445312 C 17.335938 10.300781 17.132812 10.265625 16.992188 10.371094 C 16.101562 11.03125 14.824219 11.960938 12.867188 13.382812 C 12.210938 13.859375 10.90625 15.011719 10 15 C 9.09375 15.011719 7.789062 13.863281 7.132812 13.382812 C 5.175781 11.960938 3.902344 11.03125 3.007812 10.371094 C 2.867188 10.265625 2.664062 10.300781 2.566406 10.445312 L 2.210938 10.960938 C 2.113281 11.097656 2.148438 11.289062 2.28125 11.390625 C 3.175781 12.050781 4.449219 12.976562 6.394531 14.390625 C 7.1875 14.96875 8.605469 16.257812 10 16.25 C 11.394531 16.257812 12.8125 14.96875 13.605469 14.390625 C 15.550781 12.976562 16.824219 12.050781 17.71875 11.390625 C 17.851562 11.289062 17.882812 11.097656 17.789062 10.960938 Z M 17.433594 10.445312 "/>
</g>
</svg>
