<?xml version="1.0" encoding="UTF-8"?>
<svg xmlns="http://www.w3.org/2000/svg" xmlns:xlink="http://www.w3.org/1999/xlink" width="20px" height="20px" viewBox="0 0 20 20" version="1.1">
<g id="surface1">
<path style=" stroke:none;fill-rule:nonzero;fill:rgb(0%,0%,0%);fill-opacity:1;" d="M 19.621094 7.453125 C 19.773438 7.332031 20 7.445312 20 7.636719 L 20 15.625 C 20 16.660156 19.160156 17.5 18.125 17.5 L 1.875 17.5 C 0.839844 17.5 0 16.660156 0 15.625 L 0 7.640625 C 0 7.445312 0.222656 7.335938 0.378906 7.457031 C 1.253906 8.136719 2.414062 9 6.398438 11.894531 C 7.222656 12.496094 8.613281 13.761719 10 13.753906 C 11.394531 13.765625 12.8125 12.472656 13.605469 11.894531 C 17.589844 9 18.746094 8.132812 19.621094 7.453125 Z M 10 12.5 C 10.90625 12.515625 12.210938 11.359375 12.867188 10.882812 C 18.050781 7.121094 18.445312 6.792969 19.640625 5.855469 C 19.867188 5.679688 20 5.40625 20 5.117188 L 20 4.375 C 20 3.339844 19.160156 2.5 18.125 2.5 L 1.875 2.5 C 0.839844 2.5 0 3.339844 0 4.375 L 0 5.117188 C 0 5.40625 0.132812 5.675781 0.359375 5.855469 C 1.554688 6.789062 1.949219 7.121094 7.132812 10.882812 C 7.789062 11.359375 9.09375 12.515625 10 12.5 Z M 10 12.5 "/>
</g>
</svg>
