<?xml version="1.0" encoding="UTF-8"?>
<svg xmlns="http://www.w3.org/2000/svg" xmlns:xlink="http://www.w3.org/1999/xlink" width="20px" height="20px" viewBox="0 0 20 20" version="1.1">
<g id="surface1">
<path style=" stroke:none;fill-rule:nonzero;fill:rgb(0%,0%,0%);fill-opacity:1;" d="M 10 0.3125 C 4.648438 0.3125 0.3125 4.648438 0.3125 10 C 0.3125 15.351562 4.648438 19.6875 10 19.6875 C 15.351562 19.6875 19.6875 15.351562 19.6875 10 C 19.6875 4.648438 15.351562 0.3125 10 0.3125 Z M 10 17.8125 C 5.683594 17.8125 2.1875 14.316406 2.1875 10 C 2.1875 5.683594 5.683594 2.1875 10 2.1875 C 14.316406 2.1875 17.8125 5.683594 17.8125 10 C 17.8125 14.316406 14.316406 17.8125 10 17.8125 Z M 12.414062 13.734375 L 9.097656 11.324219 C 8.976562 11.234375 8.90625 11.09375 8.90625 10.945312 L 8.90625 4.53125 C 8.90625 4.273438 9.117188 4.0625 9.375 4.0625 L 10.625 4.0625 C 10.882812 4.0625 11.09375 4.273438 11.09375 4.53125 L 11.09375 10.066406 L 13.703125 11.964844 C 13.914062 12.117188 13.957031 12.410156 13.804688 12.621094 L 13.070312 13.632812 C 12.917969 13.839844 12.625 13.886719 12.414062 13.734375 Z M 12.414062 13.734375 "/>
</g>
</svg>
