<?xml version="1.0" encoding="UTF-8"?>
<svg xmlns="http://www.w3.org/2000/svg" xmlns:xlink="http://www.w3.org/1999/xlink" width="20px" height="20px" viewBox="0 0 20 20" version="1.1">
<g id="surface1">
<path style=" stroke:none;fill-rule:nonzero;fill:rgb(0%,0%,0%);fill-opacity:1;" d="M 19.6875 9.980469 C 19.699219 15.320312 15.34375 19.683594 10.007812 19.6875 C 7.703125 19.6875 5.585938 18.886719 3.921875 17.542969 C 3.488281 17.191406 3.457031 16.542969 3.847656 16.152344 L 4.289062 15.710938 C 4.625 15.375 5.160156 15.339844 5.535156 15.632812 C 6.761719 16.605469 8.3125 17.1875 10 17.1875 C 13.972656 17.1875 17.1875 13.972656 17.1875 10 C 17.1875 6.027344 13.972656 2.8125 10 2.8125 C 8.09375 2.8125 6.363281 3.554688 5.074219 4.761719 L 7.058594 6.746094 C 7.453125 7.140625 7.171875 7.8125 6.617188 7.8125 L 0.9375 7.8125 C 0.59375 7.8125 0.3125 7.53125 0.3125 7.1875 L 0.3125 1.507812 C 0.3125 0.953125 0.984375 0.671875 1.378906 1.066406 L 3.308594 2.996094 C 5.046875 1.332031 7.40625 0.3125 10 0.3125 C 15.34375 0.3125 19.675781 4.640625 19.6875 9.980469 Z M 12.621094 13.058594 L 13.003906 12.566406 C 13.320312 12.15625 13.25 11.566406 12.839844 11.25 L 11.25 10.011719 L 11.25 5.9375 C 11.25 5.417969 10.832031 5 10.3125 5 L 9.6875 5 C 9.167969 5 8.75 5.417969 8.75 5.9375 L 8.75 11.238281 L 11.304688 13.222656 C 11.714844 13.542969 12.304688 13.46875 12.621094 13.058594 Z M 12.621094 13.058594 "/>
</g>
</svg>
