<?xml version="1.0" encoding="utf-8"?>
<svg width="20px" height="20px" viewBox="0 0 20 20" version="1.1" xmlns:xlink="http://www.w3.org/1999/xlink" xmlns="http://www.w3.org/2000/svg">
  <defs>
    <path d="M0 0L20 0L20 20L0 20L0 0Z" id="path_1" />
    <clipPath id="mask_1">
      <use xlink:href="#path_1" />
    </clipPath>
  </defs>
  <g id="vector-(4)">
    <path d="M0 0L20 0L20 20L0 20L0 0Z" id="Background" fill="none" fill-rule="evenodd" stroke="none" />
    <g clip-path="url(#mask_1)">
      <path d="M9.01583 12.0225C9.06917 12.245 9.08 12.5883 8.99833 12.8125C8.89167 13.105 8.68083 13.2525 8.37 13.2525L7.83917 13.2525L7.83917 11.4858L8.2525 11.4858C8.6475 11.4858 8.92167 11.63 9.01583 12.0225L9.01583 12.0225ZM11.5917 4.81417C13.2975 4.415 15.5958 5.04667 16.6667 5.79667C15.4217 4.1325 12.3083 1.04 10.4733 0.0616667C11.4375 1.035 11.7758 3.59083 11.5917 4.81417L11.5917 4.81417ZM5.3775 11.4433L4.9225 11.4433L4.9225 12.2767L5.3775 12.2767C5.57333 12.2767 5.76667 12.2528 5.8575 12.0761C5.91333 11.9674 5.91333 11.7526 5.8575 11.6439C5.76667 11.469 5.57333 11.4433 5.3775 11.4433L5.3775 11.4433ZM16.6667 9.16667L16.6667 20L0 20L0 0L7.0075 0C11.0558 0 9.78583 6.66667 9.78583 6.66667C12.295 6.04583 16.6667 6.31667 16.6667 9.16667L16.6667 9.16667ZM6.57667 11.4675C6.44333 11.0642 6.07167 10.8333 5.55667 10.8333L4.16667 10.8333L4.16667 13.905L4.9225 13.905L4.9225 12.8408L5.55667 12.8408C6.0725 12.8408 6.44333 12.61 6.57667 12.205C6.655 11.9617 6.655 11.7075 6.57667 11.4675L6.57667 11.4675ZM9.41583 11.215C9.16833 10.9658 8.82333 10.8333 8.41667 10.8333L7.08417 10.8333L7.08417 13.905L8.41667 13.905C8.86417 13.905 9.2175 13.7542 9.46833 13.4592C9.93 12.91 9.95667 11.7633 9.41583 11.215L9.41583 11.215ZM12.5 10.8333L10.31 10.8333L10.31 13.905L11.0658 13.905L11.0658 12.6783L12.3075 12.6783L12.3075 12.0683L11.0658 12.0683L11.0658 11.4867L12.5 11.4867L12.5 10.8333L12.5 10.8333Z" transform="translate(1.6666666 0)" id="path" fill="#000000" fill-rule="evenodd" stroke="none" />
    </g>
  </g>
</svg>