<?xml version="1.0" encoding="UTF-8"?>
<svg xmlns="http://www.w3.org/2000/svg" xmlns:xlink="http://www.w3.org/1999/xlink" width="15px" height="20px" viewBox="0 0 15 20" version="1.1">
<g id="surface1">
<path style=" stroke:none;fill-rule:nonzero;fill:rgb(0%,0%,0%);fill-opacity:1;" d="M 9.351562 12.5 C 12.675781 12.5 15 10.175781 15 6.839844 C 15 3.5 12.675781 1.25 9.351562 1.25 L 2.96875 1.25 C 2.710938 1.25 2.5 1.460938 2.5 1.71875 L 2.5 9.789062 L 0.46875 9.789062 C 0.210938 9.789062 0 10 0 10.257812 L 0 12.03125 C 0 12.289062 0.210938 12.5 0.46875 12.5 L 2.5 12.5 L 2.5 13.75 L 0.46875 13.75 C 0.210938 13.75 0 13.960938 0 14.21875 L 0 15.78125 C 0 16.039062 0.210938 16.25 0.46875 16.25 L 2.5 16.25 L 2.5 18.28125 C 2.5 18.539062 2.710938 18.75 2.96875 18.75 L 5.257812 18.75 C 5.515625 18.75 5.726562 18.539062 5.726562 18.28125 L 5.726562 16.25 L 12.03125 16.25 C 12.289062 16.25 12.5 16.039062 12.5 15.78125 L 12.5 14.21875 C 12.5 13.960938 12.289062 13.75 12.03125 13.75 L 5.726562 13.75 L 5.726562 12.5 Z M 5.726562 3.933594 L 8.800781 3.933594 C 10.625 3.933594 11.726562 5.074219 11.726562 6.839844 C 11.726562 8.628906 10.625 9.789062 8.75 9.789062 L 5.726562 9.789062 Z M 5.726562 3.933594 "/>
</g>
</svg>
