<?xml version="1.0" encoding="UTF-8"?>
<svg xmlns="http://www.w3.org/2000/svg" xmlns:xlink="http://www.w3.org/1999/xlink" width="20px" height="20px" viewBox="0 0 20 20" version="1.1">
<g id="surface1">
<path style=" stroke:none;fill-rule:nonzero;fill:rgb(0%,0%,0%);fill-opacity:1;" d="M 10 15.242188 L 10 16.773438 C 10.535156 16.878906 10.980469 17.023438 11.246094 17.210938 C 11.472656 17.371094 11.476562 17.625 11.246094 17.785156 C 10 18.664062 5 18.664062 3.753906 17.785156 C 3.527344 17.628906 3.527344 17.371094 3.753906 17.210938 C 4.019531 17.023438 4.460938 16.878906 5 16.773438 L 5 15.246094 C 3.03125 15.644531 1.667969 16.503906 1.667969 17.5 C 1.667969 18.878906 4.277344 20 7.5 20 C 10.722656 20 13.332031 18.878906 13.332031 17.5 C 13.332031 16.503906 11.96875 15.644531 10 15.242188 Z M 16.207031 2.792969 C 13.933594 2.792969 13.882812 0.832031 11.242188 0.832031 C 10.089844 0.832031 9.007812 1.265625 8.332031 1.683594 L 8.332031 0 L 6.667969 0 L 6.667969 17.5 L 8.332031 17.5 L 8.332031 9.898438 C 9.113281 9.4375 10.144531 9.023438 11.25 9.023438 C 13.746094 9.023438 14.09375 10.890625 16.316406 10.890625 C 17.199219 10.890625 17.914062 10.542969 18.332031 10.277344 L 18.332031 2.125 C 17.886719 2.410156 17.117188 2.792969 16.207031 2.792969 Z M 16.667969 6.683594 C 15.164062 7.089844 13.265625 5.777344 12.5 5.273438 L 12.5 7.5 C 12.5 7.5 11.035156 6.832031 8.332031 8.117188 L 8.332031 5.699219 C 9.324219 4.828125 11.078125 4.253906 12.5 5.273438 L 12.5 2.933594 C 13.152344 3.449219 14.644531 4.382812 16.207031 4.382812 C 16.367188 4.382812 16.519531 4.371094 16.667969 4.355469 Z M 16.667969 6.683594 "/>
</g>
</svg>
