<?xml version="1.0" encoding="UTF-8"?>
<svg xmlns="http://www.w3.org/2000/svg" xmlns:xlink="http://www.w3.org/1999/xlink" width="17px" height="20px" viewBox="0 0 17 19" version="1.1">
<g id="surface1">
<path style=" stroke:none;fill-rule:nonzero;fill:rgb(0%,0%,0%);fill-opacity:1;" d="M 0 17.21875 C 0 18.203125 0.816406 19 1.820312 19 L 15.179688 19 C 16.183594 19 17 18.203125 17 17.21875 L 17 7.125 L 0 7.125 Z M 12.144531 9.945312 C 12.144531 9.699219 12.347656 9.5 12.597656 9.5 L 14.117188 9.5 C 14.367188 9.5 14.570312 9.699219 14.570312 9.945312 L 14.570312 11.429688 C 14.570312 11.675781 14.367188 11.875 14.117188 11.875 L 12.597656 11.875 C 12.347656 11.875 12.144531 11.675781 12.144531 11.429688 Z M 12.144531 14.695312 C 12.144531 14.449219 12.347656 14.25 12.597656 14.25 L 14.117188 14.25 C 14.367188 14.25 14.570312 14.449219 14.570312 14.695312 L 14.570312 16.179688 C 14.570312 16.425781 14.367188 16.625 14.117188 16.625 L 12.597656 16.625 C 12.347656 16.625 12.144531 16.425781 12.144531 16.179688 Z M 7.285156 9.945312 C 7.285156 9.699219 7.492188 9.5 7.742188 9.5 L 9.257812 9.5 C 9.507812 9.5 9.714844 9.699219 9.714844 9.945312 L 9.714844 11.429688 C 9.714844 11.675781 9.507812 11.875 9.257812 11.875 L 7.742188 11.875 C 7.492188 11.875 7.285156 11.675781 7.285156 11.429688 Z M 7.285156 14.695312 C 7.285156 14.449219 7.492188 14.25 7.742188 14.25 L 9.257812 14.25 C 9.507812 14.25 9.714844 14.449219 9.714844 14.695312 L 9.714844 16.179688 C 9.714844 16.425781 9.507812 16.625 9.257812 16.625 L 7.742188 16.625 C 7.492188 16.625 7.285156 16.425781 7.285156 16.179688 Z M 2.429688 9.945312 C 2.429688 9.699219 2.632812 9.5 2.882812 9.5 L 4.402344 9.5 C 4.652344 9.5 4.855469 9.699219 4.855469 9.945312 L 4.855469 11.429688 C 4.855469 11.675781 4.652344 11.875 4.402344 11.875 L 2.882812 11.875 C 2.632812 11.875 2.429688 11.675781 2.429688 11.429688 Z M 2.429688 14.695312 C 2.429688 14.449219 2.632812 14.25 2.882812 14.25 L 4.402344 14.25 C 4.652344 14.25 4.855469 14.449219 4.855469 14.695312 L 4.855469 16.179688 C 4.855469 16.425781 4.652344 16.625 4.402344 16.625 L 2.882812 16.625 C 2.632812 16.625 2.429688 16.425781 2.429688 16.179688 Z M 15.179688 2.375 L 13.355469 2.375 L 13.355469 0.59375 C 13.355469 0.265625 13.082031 0 12.75 0 L 11.535156 0 C 11.203125 0 10.929688 0.265625 10.929688 0.59375 L 10.929688 2.375 L 6.070312 2.375 L 6.070312 0.59375 C 6.070312 0.265625 5.796875 0 5.464844 0 L 4.25 0 C 3.917969 0 3.644531 0.265625 3.644531 0.59375 L 3.644531 2.375 L 1.820312 2.375 C 0.816406 2.375 0 3.171875 0 4.15625 L 0 5.9375 L 17 5.9375 L 17 4.15625 C 17 3.171875 16.183594 2.375 15.179688 2.375 Z M 15.179688 2.375 "/>
</g>
</svg>
