<?xml version="1.0" encoding="UTF-8"?>
<svg xmlns="http://www.w3.org/2000/svg" xmlns:xlink="http://www.w3.org/1999/xlink" width="20px" height="20px" viewBox="0 0 20 20" version="1.1">
<g id="surface1">
<path style=" stroke:none;fill-rule:nonzero;fill:rgb(0%,0%,0%);fill-opacity:1;" d="M 10 0 C 4.476562 0 0 4.476562 0 10 C 0 15.523438 4.476562 20 10 20 C 15.523438 20 20 15.523438 20 10 C 20 4.476562 15.523438 0 10 0 Z M 18.332031 10 C 18.332031 11.996094 17.625 13.832031 16.449219 15.269531 L 4.730469 3.550781 C 6.167969 2.375 8.003906 1.667969 10 1.667969 C 14.59375 1.667969 18.332031 5.40625 18.332031 10 Z M 1.667969 10 C 1.667969 8.003906 2.375 6.167969 3.550781 4.730469 L 15.269531 16.449219 C 13.832031 17.625 11.996094 18.332031 10 18.332031 C 5.40625 18.332031 1.667969 14.59375 1.667969 10 Z M 1.667969 10 "/>
</g>
</svg>
