<?xml version="1.0" encoding="UTF-8"?>
<svg xmlns="http://www.w3.org/2000/svg" xmlns:xlink="http://www.w3.org/1999/xlink" width="15px" height="20px" viewBox="0 0 15 20" version="1.1">
<g id="surface1">
<path style=" stroke:none;fill-rule:nonzero;fill:rgb(0%,0%,0%);fill-opacity:1;" d="M 13.125 2.5 L 10 2.5 C 10 1.121094 8.878906 0 7.5 0 C 6.121094 0 5 1.121094 5 2.5 L 1.875 2.5 C 0.839844 2.5 0 3.339844 0 4.375 L 0 18.125 C 0 19.160156 0.839844 20 1.875 20 L 13.125 20 C 14.160156 20 15 19.160156 15 18.125 L 15 4.375 C 15 3.339844 14.160156 2.5 13.125 2.5 Z M 3.75 16.5625 C 3.230469 16.5625 2.8125 16.144531 2.8125 15.625 C 2.8125 15.105469 3.230469 14.6875 3.75 14.6875 C 4.269531 14.6875 4.6875 15.105469 4.6875 15.625 C 4.6875 16.144531 4.269531 16.5625 3.75 16.5625 Z M 3.75 12.8125 C 3.230469 12.8125 2.8125 12.394531 2.8125 11.875 C 2.8125 11.355469 3.230469 10.9375 3.75 10.9375 C 4.269531 10.9375 4.6875 11.355469 4.6875 11.875 C 4.6875 12.394531 4.269531 12.8125 3.75 12.8125 Z M 3.75 9.0625 C 3.230469 9.0625 2.8125 8.644531 2.8125 8.125 C 2.8125 7.605469 3.230469 7.1875 3.75 7.1875 C 4.269531 7.1875 4.6875 7.605469 4.6875 8.125 C 4.6875 8.644531 4.269531 9.0625 3.75 9.0625 Z M 7.5 1.5625 C 8.019531 1.5625 8.4375 1.980469 8.4375 2.5 C 8.4375 3.019531 8.019531 3.4375 7.5 3.4375 C 6.980469 3.4375 6.5625 3.019531 6.5625 2.5 C 6.5625 1.980469 6.980469 1.5625 7.5 1.5625 Z M 12.5 15.9375 C 12.5 16.109375 12.359375 16.25 12.1875 16.25 L 6.5625 16.25 C 6.390625 16.25 6.25 16.109375 6.25 15.9375 L 6.25 15.3125 C 6.25 15.140625 6.390625 15 6.5625 15 L 12.1875 15 C 12.359375 15 12.5 15.140625 12.5 15.3125 Z M 12.5 12.1875 C 12.5 12.359375 12.359375 12.5 12.1875 12.5 L 6.5625 12.5 C 6.390625 12.5 6.25 12.359375 6.25 12.1875 L 6.25 11.5625 C 6.25 11.390625 6.390625 11.25 6.5625 11.25 L 12.1875 11.25 C 12.359375 11.25 12.5 11.390625 12.5 11.5625 Z M 12.5 8.4375 C 12.5 8.609375 12.359375 8.75 12.1875 8.75 L 6.5625 8.75 C 6.390625 8.75 6.25 8.609375 6.25 8.4375 L 6.25 7.8125 C 6.25 7.640625 6.390625 7.5 6.5625 7.5 L 12.1875 7.5 C 12.359375 7.5 12.5 7.640625 12.5 7.8125 Z M 12.5 8.4375 "/>
</g>
</svg>
