<?xml version="1.0" encoding="UTF-8"?>
<svg xmlns="http://www.w3.org/2000/svg" xmlns:xlink="http://www.w3.org/1999/xlink" width="20px" height="20px" viewBox="0 0 20 20" version="1.1">
<g id="surface1">
<path style=" stroke:none;fill-rule:nonzero;fill:rgb(0%,0%,0%);fill-opacity:1;" d="M 19.449219 5.550781 L 17.648438 7.351562 C 17.464844 7.535156 17.167969 7.535156 16.984375 7.351562 L 12.648438 3.015625 C 12.464844 2.832031 12.464844 2.535156 12.648438 2.351562 L 14.449219 0.550781 C 15.179688 -0.179688 16.367188 -0.179688 17.101562 0.550781 L 19.449219 2.898438 C 20.183594 3.628906 20.183594 4.816406 19.449219 5.550781 Z M 11.101562 3.898438 L 0.84375 14.15625 L 0.015625 18.902344 C -0.0976562 19.542969 0.460938 20.097656 1.101562 19.988281 L 5.847656 19.15625 L 16.105469 8.898438 C 16.289062 8.714844 16.289062 8.417969 16.105469 8.234375 L 11.769531 3.898438 C 11.582031 3.714844 11.285156 3.714844 11.101562 3.898438 Z M 4.847656 13.277344 C 4.632812 13.0625 4.632812 12.71875 4.847656 12.503906 L 10.863281 6.488281 C 11.078125 6.273438 11.421875 6.273438 11.636719 6.488281 C 11.851562 6.703125 11.851562 7.046875 11.636719 7.261719 L 5.621094 13.277344 C 5.40625 13.492188 5.0625 13.492188 4.847656 13.277344 Z M 3.4375 16.5625 L 5.3125 16.5625 L 5.3125 17.980469 L 2.792969 18.421875 L 1.578125 17.207031 L 2.019531 14.6875 L 3.4375 14.6875 Z M 3.4375 16.5625 "/>
</g>
</svg>
