<?xml version="1.0" encoding="UTF-8"?>
<svg xmlns="http://www.w3.org/2000/svg" xmlns:xlink="http://www.w3.org/1999/xlink" width="17px" height="20px" viewBox="0 0 17 19" version="1.1">
<g id="surface1">
<path style=" stroke:none;fill-rule:nonzero;fill:rgb(0%,0%,0%);fill-opacity:1;" d="M 16.542969 5.9375 C 16.796875 5.9375 17 5.738281 17 5.492188 L 17 4.007812 C 17 3.761719 16.796875 3.5625 16.542969 3.5625 L 15.785156 3.5625 L 15.785156 1.78125 C 15.785156 0.796875 14.96875 0 13.964844 0 L 1.820312 0 C 0.816406 0 0 0.796875 0 1.78125 L 0 17.21875 C 0 18.203125 0.816406 19 1.820312 19 L 13.964844 19 C 14.96875 19 15.785156 18.203125 15.785156 17.21875 L 15.785156 15.4375 L 16.542969 15.4375 C 16.796875 15.4375 17 15.238281 17 14.992188 L 17 13.507812 C 17 13.261719 16.796875 13.0625 16.542969 13.0625 L 15.785156 13.0625 L 15.785156 10.6875 L 16.542969 10.6875 C 16.796875 10.6875 17 10.488281 17 10.242188 L 17 8.757812 C 17 8.511719 16.796875 8.3125 16.542969 8.3125 L 15.785156 8.3125 L 15.785156 5.9375 Z M 13.964844 17.21875 L 1.820312 17.21875 L 1.820312 1.78125 L 13.964844 1.78125 Z M 7.894531 9.5 C 9.230469 9.5 10.320312 8.433594 10.320312 7.125 C 10.320312 5.816406 9.230469 4.75 7.894531 4.75 C 6.554688 4.75 5.464844 5.816406 5.464844 7.125 C 5.464844 8.433594 6.554688 9.5 7.894531 9.5 Z M 4.492188 14.25 L 11.292969 14.25 C 11.761719 14.25 12.144531 13.929688 12.144531 13.539062 L 12.144531 12.824219 C 12.144531 11.644531 11 10.6875 9.59375 10.6875 C 9.183594 10.6875 8.882812 10.984375 7.894531 10.984375 C 6.871094 10.984375 6.625 10.6875 6.191406 10.6875 C 4.785156 10.6875 3.644531 11.644531 3.644531 12.824219 L 3.644531 13.539062 C 3.644531 13.929688 4.023438 14.25 4.492188 14.25 Z M 4.492188 14.25 "/>
</g>
</svg>
