<?xml version="1.0" encoding="UTF-8"?>
<svg xmlns="http://www.w3.org/2000/svg" xmlns:xlink="http://www.w3.org/1999/xlink" width="20px" height="20px" viewBox="0 0 20 20" version="1.1">
<g id="surface1">
<path style=" stroke:none;fill-rule:nonzero;fill:rgb(0%,0%,0%);fill-opacity:1;" d="M 10 1.683594 C 14.59375 1.683594 18.332031 5.421875 18.332031 10.015625 C 18.332031 14.613281 14.59375 18.351562 10 18.351562 C 5.40625 18.351562 1.667969 14.613281 1.667969 10.015625 C 1.667969 5.421875 5.40625 1.683594 10 1.683594 Z M 10 0.015625 C 4.476562 0.015625 0 4.496094 0 10.015625 C 0 15.539062 4.476562 20.015625 10 20.015625 C 15.523438 20.015625 20 15.539062 20 10.015625 C 20 4.496094 15.523438 0.015625 10 0.015625 Z M 10 10.476562 L 5.007812 6.667969 L 14.992188 6.667969 Z M 10 11.546875 L 5 7.691406 L 5 13.332031 L 15 13.332031 L 15 7.691406 Z M 10 11.546875 "/>
</g>
</svg>
