<?xml version="1.0" encoding="UTF-8"?>
<svg xmlns="http://www.w3.org/2000/svg" xmlns:xlink="http://www.w3.org/1999/xlink" width="23px" height="20px" viewBox="0 0 22 20" version="1.1">
<g id="surface1">
<path style=" stroke:none;fill-rule:nonzero;fill:rgb(0%,0%,0%);fill-opacity:1;" d="M 17.957031 9.035156 C 17.957031 9.035156 18.246094 10.488281 18.308594 10.792969 L 17.035156 10.792969 C 17.160156 10.445312 17.644531 9.09375 17.644531 9.09375 C 17.636719 9.105469 17.773438 8.738281 17.847656 8.511719 Z M 22 3.125 L 22 16.875 C 22 17.910156 21.179688 18.75 20.167969 18.75 L 1.832031 18.75 C 0.820312 18.75 0 17.910156 0 16.875 L 0 3.125 C 0 2.089844 0.820312 1.25 1.832031 1.25 L 20.167969 1.25 C 21.179688 1.25 22 2.089844 22 3.125 Z M 5.824219 12.9375 L 8.238281 6.875 L 6.617188 6.875 L 5.113281 11.015625 L 4.949219 10.175781 L 4.414062 7.386719 C 4.328125 7 4.054688 6.890625 3.71875 6.875 L 1.25 6.875 L 1.222656 6.996094 C 1.824219 7.152344 2.363281 7.378906 2.835938 7.664062 L 4.203125 12.9375 Z M 9.429688 12.945312 L 10.394531 6.875 L 8.855469 6.875 L 7.898438 12.945312 Z M 14.773438 10.960938 C 14.78125 10.269531 14.367188 9.742188 13.488281 9.308594 C 12.949219 9.03125 12.621094 8.84375 12.621094 8.558594 C 12.628906 8.300781 12.898438 8.035156 13.5 8.035156 C 14.003906 8.023438 14.367188 8.144531 14.644531 8.265625 L 14.78125 8.332031 L 14.992188 7.019531 C 14.691406 6.898438 14.207031 6.761719 13.617188 6.761719 C 12.101562 6.761719 11.035156 7.589844 11.027344 8.769531 C 11.015625 9.640625 11.789062 10.125 12.371094 10.417969 C 12.964844 10.714844 13.164062 10.910156 13.164062 11.171875 C 13.15625 11.578125 12.683594 11.765625 12.246094 11.765625 C 11.632812 11.765625 11.304688 11.667969 10.804688 11.441406 L 10.601562 11.34375 L 10.390625 12.707031 C 10.746094 12.875 11.414062 13.023438 12.101562 13.03125 C 13.710938 13.035156 14.761719 12.21875 14.773438 10.960938 Z M 20.167969 12.945312 L 18.929688 6.875 L 17.742188 6.875 C 17.375 6.875 17.097656 6.984375 16.9375 7.378906 L 14.660156 12.945312 L 16.269531 12.945312 C 16.269531 12.945312 16.535156 12.195312 16.589844 12.035156 L 18.5625 12.035156 C 18.609375 12.25 18.746094 12.945312 18.746094 12.945312 Z M 20.167969 12.945312 "/>
</g>
</svg>
