<?xml version="1.0" encoding="UTF-8"?>
<svg xmlns="http://www.w3.org/2000/svg" xmlns:xlink="http://www.w3.org/1999/xlink" width="17px" height="20px" viewBox="0 0 17 19" version="1.1">
<g id="surface1">
<path style=" stroke:none;fill-rule:nonzero;fill:rgb(0%,0%,0%);fill-opacity:1;" d="M 14.136719 4.179688 L 14.136719 3.777344 C 14.136719 2.160156 12.601562 0.933594 10.988281 1.347656 C 10.015625 -0.492188 7.417969 -0.414062 6.507812 1.375 C 4.941406 0.980469 3.382812 2.148438 3.382812 3.785156 L 3.382812 8.464844 C 2.625 8.191406 1.738281 8.277344 1.027344 8.796875 C -0.0859375 9.605469 -0.332031 11.144531 0.476562 12.25 L 5.027344 18.5 C 5.253906 18.8125 5.625 19 6.015625 19 L 14.472656 19 C 15.039062 19 15.53125 18.617188 15.65625 18.078125 L 16.804688 13.21875 C 16.933594 12.664062 17 12.09375 17 11.523438 L 17 6.640625 C 17 5.136719 15.652344 3.972656 14.136719 4.179688 Z M 15.179688 11.523438 C 15.179688 11.960938 15.128906 12.394531 15.027344 12.820312 L 13.992188 17.21875 L 6.328125 17.21875 L 1.957031 11.21875 C 1.410156 10.464844 2.527344 9.632812 3.074219 10.378906 L 4.101562 11.792969 C 4.445312 12.261719 5.203125 12.027344 5.203125 11.449219 L 5.203125 3.785156 C 5.203125 2.832031 6.59375 2.863281 6.59375 3.8125 L 6.59375 9.5 C 6.59375 9.828125 6.863281 10.09375 7.199219 10.09375 L 7.460938 10.09375 C 7.792969 10.09375 8.066406 9.828125 8.066406 9.5 L 8.066406 2.484375 C 8.066406 1.535156 9.453125 1.566406 9.453125 2.511719 L 9.453125 9.5 C 9.453125 9.828125 9.726562 10.09375 10.0625 10.09375 L 10.320312 10.09375 C 10.65625 10.09375 10.929688 9.828125 10.929688 9.5 L 10.929688 3.753906 C 10.929688 2.800781 12.316406 2.832031 12.316406 3.777344 L 12.316406 9.5 C 12.316406 9.828125 12.589844 10.09375 12.921875 10.09375 L 13.183594 10.09375 C 13.519531 10.09375 13.789062 9.828125 13.789062 9.5 L 13.789062 6.667969 C 13.789062 5.695312 15.179688 5.714844 15.179688 6.640625 Z M 15.179688 11.523438 "/>
</g>
</svg>
