<?xml version="1.0" encoding="UTF-8"?>
<svg xmlns="http://www.w3.org/2000/svg" xmlns:xlink="http://www.w3.org/1999/xlink" width="20px" height="20px" viewBox="0 0 20 20" version="1.1">
<g id="surface1">
<path style=" stroke:none;fill-rule:nonzero;fill:rgb(0%,0%,0%);fill-opacity:1;" d="M 10 0.3125 C 4.648438 0.3125 0.3125 4.648438 0.3125 10 C 0.3125 15.351562 4.648438 19.6875 10 19.6875 C 15.351562 19.6875 19.6875 15.351562 19.6875 10 C 19.6875 4.648438 15.351562 0.3125 10 0.3125 Z M 10 2.1875 C 14.316406 2.1875 17.8125 5.683594 17.8125 10 C 17.8125 14.316406 14.316406 17.8125 10 17.8125 C 5.683594 17.8125 2.1875 14.316406 2.1875 10 C 2.1875 5.683594 5.683594 2.1875 10 2.1875 M 15.476562 7.277344 L 14.597656 6.386719 C 14.414062 6.203125 14.117188 6.203125 13.933594 6.386719 L 8.410156 11.863281 L 6.078125 9.507812 C 5.894531 9.324219 5.597656 9.324219 5.414062 9.507812 L 4.527344 10.386719 C 4.34375 10.570312 4.339844 10.867188 4.523438 11.050781 L 8.070312 14.625 C 8.25 14.808594 8.546875 14.808594 8.730469 14.625 L 15.472656 7.9375 C 15.65625 7.757812 15.660156 7.460938 15.476562 7.277344 Z M 15.476562 7.277344 "/>
</g>
</svg>
