<?xml version="1.0" encoding="UTF-8"?>
<svg xmlns="http://www.w3.org/2000/svg" xmlns:xlink="http://www.w3.org/1999/xlink" width="20px" height="20px" viewBox="0 0 20 20" version="1.1">
<g id="surface1">
<path style=" stroke:none;fill-rule:nonzero;fill:rgb(0%,0%,0%);fill-opacity:1;" d="M 9.5 7.417969 L 9.5 10.078125 C 10.519531 10.308594 11.425781 10.6875 12.375 10.949219 L 12.375 8.285156 C 11.359375 8.058594 10.445312 7.679688 9.5 7.417969 Z M 18.222656 2.613281 C 16.882812 3.234375 15.234375 3.859375 13.652344 3.859375 C 11.5625 3.859375 9.832031 2.5 7.199219 2.5 C 6.222656 2.5 5.351562 2.671875 4.542969 2.96875 C 4.652344 2.683594 4.703125 2.375 4.683594 2.046875 C 4.613281 0.9375 3.703125 0.046875 2.589844 0 C 1.339844 -0.0507812 0.3125 0.949219 0.3125 2.1875 C 0.3125 2.929688 0.683594 3.585938 1.25 3.980469 L 1.25 19.0625 C 1.25 19.582031 1.667969 20 2.1875 20 L 2.8125 20 C 3.332031 20 3.75 19.582031 3.75 19.0625 L 3.75 15.375 C 4.855469 14.902344 6.234375 14.511719 8.21875 14.511719 C 10.3125 14.511719 12.039062 15.871094 14.671875 15.871094 C 16.554688 15.871094 18.058594 15.234375 19.457031 14.273438 C 19.796875 14.039062 19.996094 13.65625 19.996094 13.242188 L 19.996094 3.746094 C 20 2.835938 19.050781 2.230469 18.222656 2.613281 Z M 6.625 12.714844 C 5.617188 12.820312 4.671875 13.035156 3.75 13.363281 L 3.75 10.609375 C 4.773438 10.246094 5.605469 10.023438 6.625 9.929688 Z M 18.125 7.460938 C 17.203125 7.84375 16.316406 8.222656 15.25 8.394531 L 15.25 11.171875 C 16.21875 11.039062 17.257812 10.710938 18.125 10.15625 L 18.125 12.910156 C 17.144531 13.539062 16.230469 13.875 15.25 13.96875 L 15.25 11.171875 C 14.195312 11.316406 13.378906 11.230469 12.375 10.953125 L 12.375 13.585938 C 11.441406 13.296875 10.527344 12.933594 9.5 12.753906 L 9.5 10.078125 C 8.730469 9.90625 7.90625 9.8125 6.625 9.929688 L 6.625 7.195312 C 5.75 7.316406 4.882812 7.59375 3.75 8.011719 L 3.75 5.257812 C 5.046875 4.78125 5.707031 4.484375 6.625 4.398438 L 6.625 7.195312 C 7.679688 7.050781 8.515625 7.144531 9.5 7.417969 L 9.5 4.785156 C 10.425781 5.074219 11.34375 5.4375 12.375 5.617188 L 12.375 8.289062 C 13.300781 8.496094 14.234375 8.558594 15.25 8.394531 L 15.25 5.585938 C 16.304688 5.398438 17.292969 5.054688 18.125 4.707031 Z M 18.125 7.460938 "/>
</g>
</svg>
