<?xml version="1.0" encoding="UTF-8"?>
<svg xmlns="http://www.w3.org/2000/svg" xmlns:xlink="http://www.w3.org/1999/xlink" width="20px" height="20px" viewBox="0 0 20 20" version="1.1">
<g id="surface1">
<path style=" stroke:none;fill-rule:nonzero;fill:rgb(0%,0%,0%);fill-opacity:1;" d="M 10 0 C 7.582031 0 5.625 2.203125 5.625 4.921875 C 5.625 7.121094 8.484375 11.125 9.578125 12.578125 C 9.800781 12.875 10.199219 12.875 10.421875 12.578125 C 11.515625 11.125 14.375 7.121094 14.375 4.921875 C 14.375 2.203125 12.417969 0 10 0 Z M 10 6.5625 C 9.195312 6.5625 8.542969 5.828125 8.542969 4.921875 C 8.542969 4.015625 9.195312 3.28125 10 3.28125 C 10.804688 3.28125 11.457031 4.015625 11.457031 4.921875 C 11.457031 5.828125 10.804688 6.5625 10 6.5625 Z M 0.699219 8.4375 C 0.277344 8.625 0 9.085938 0 9.597656 L 0 19.375 C 0 19.816406 0.398438 20.117188 0.761719 19.953125 L 5.554688 17.5 L 5.554688 8.394531 C 5.25 7.769531 4.996094 7.164062 4.816406 6.582031 Z M 10 14.050781 C 9.511719 14.050781 9.050781 13.808594 8.730469 13.386719 C 8.050781 12.480469 7.324219 11.449219 6.667969 10.390625 L 6.667969 17.5 L 13.332031 20 L 13.332031 10.390625 C 12.675781 11.449219 11.949219 12.480469 11.269531 13.386719 C 10.949219 13.808594 10.488281 14.050781 10 14.050781 Z M 19.238281 6.296875 L 14.445312 8.75 L 14.445312 20 L 19.300781 17.8125 C 19.722656 17.625 20 17.164062 20 16.652344 L 20 6.875 C 20 6.433594 19.601562 6.132812 19.238281 6.296875 Z M 19.238281 6.296875 "/>
</g>
</svg>
